<?xml version="1.0" encoding="UTF-8"?>
<svg xmlns="http://www.w3.org/2000/svg" xmlns:xlink="http://www.w3.org/1999/xlink" version="1.1" id="Layer_1" x="0px" y="0px" viewBox="0 0 32 32" style="enable-background:new 0 0 32 32;" xml:space="preserve" width="512" height="512">
<style type="text/css">
	.st0{fill:#427BBF;}
	.st1{fill:#ED1C24;}
	.st2{fill:#FFFFFF;}
	.st3{opacity:0.3;enable-background:new    ;}
</style>
<path class="st0" d="M25,8H7c-1.1,0-2,0.9-2,2v12c0,1.1,0.9,2,2,2h5c0.6,0,1,0.4,1,1h1c0-0.6,0.4-1,1-1h2c0.6,0,1,0.4,1,1h1  c0-0.6,0.4-1,1-1h5c1.1,0,2-0.9,2-2V10C27,8.9,26.1,8,25,8z"/>
<path d="M17,24h-2c-0.6,0-1,0.4-1,1l0,0c0,0.6,0.4,1,1,1h2c0.6,0,1-0.4,1-1l0,0C18,24.4,17.6,24,17,24z"/>
<path d="M20,24c-0.6,0-1,0.4-1,1l0,0c0,0.6,0.4,1,1,1h5c2.2,0,4-1.8,4-4V10c0-2.2-1.8-4-4-4H7c-2.2,0-4,1.8-4,4v12c0,2.2,1.8,4,4,4  h5c0.6,0,1-0.4,1-1l0,0c0-0.6-0.4-1-1-1H7c-1.1,0-2-0.9-2-2V10c0-1.1,0.9-2,2-2h16h2c1.1,0,2,0.9,2,2v12c0,1.1-0.9,2-2,2"/>
<path class="st1" d="M11.56,19L6.6,23.96C6.73,23.99,6.86,24,7,24h2.4l3.6-3.6V19H11.56z"/>
<path class="st1" d="M13,11.58L9.42,8H7C6.87,8,6.74,8.01,6.62,8.04L11.58,13H13V11.58z"/>
<path class="st1" d="M20.4,13l4.97-4.97C25.25,8.01,25.13,8,25,8h-2.44L19,11.56V13H20.4z"/>
<path class="st2" d="M21.46,13l4.66-4.66c-0.22-0.15-0.48-0.25-0.75-0.31L20.4,13h0H21.46z"/>
<polygon class="st2" points="22.56,8 21.5,8 19,10.5 19,11.56 "/>
<path class="st1" d="M19.4,14L19.4,14H18v-1.44V11.5V8h-4v3.52v1.06V14h-1.42h-1.06H5v4h6.5h1.06H14v1.4v1.06V25c0-0.6,0.4-1,1-1h2  c0.6,0,1,0.4,1,1v-4.52v-1.06V18h1.42h1.06H27v-4h-6.54H19.4z"/>
<polygon class="st2" points="21.46,13 20.4,13 20.4,13 19,13 19,11.56 19,10.5 19,8 18,8 18,11.5 18,12.56 18,14 19.4,14 19.4,14   20.46,14 27,14 27,13 "/>
<path class="st2" d="M6.62,8.04C6.35,8.09,6.09,8.2,5.87,8.35L10.52,13h1.06L6.62,8.04z"/>
<polygon class="st2" points="10.48,8 9.42,8 13,11.58 13,10.52 "/>
<polygon class="st2" points="13,8 13,10.52 13,11.58 13,13 11.58,13 10.52,13 5,13 5,14 11.52,14 12.58,14 14,14 14,12.58 14,11.52   14,8 "/>
<polygon class="st2" points="13,20.4 9.4,24 10.46,24 13,21.46 13,20.4 "/>
<path class="st2" d="M5.86,23.64c0.22,0.16,0.47,0.27,0.74,0.32L11.56,19H10.5L5.86,23.64z"/>
<polygon class="st2" points="12.56,18 11.5,18 5,18 5,19 10.5,19 11.56,19 13,19 13,20.4 13,20.4 13,21.46 13,25 14,25 14,20.46   14,19.4 14,19.4 14,18 "/>
<polygon class="st2" points="19,21.48 21.52,24 22.58,24 19,20.42 19,21.46 "/>
<path class="st2" d="M20.42,19l4.96,4.96c0.27-0.05,0.53-0.16,0.75-0.31L21.48,19h-1.04H20.42z"/>
<path class="st1" d="M19,20.4L19,20.4v0.02L22.58,24H25c0.13,0,0.26-0.01,0.38-0.04L20.42,19H19V20.4z"/>
<polygon class="st2" points="21.48,19 21.5,19 27,19 27,18 20.5,18 20.48,18 19.44,18 19.42,18 18,18 18,19.4 18,19.4 18,19.42   18,20.46 18,20.48 18,25 19,25 19,21.48 19,21.46 19,20.42 19,20.4 19,20.4 19,19 20.42,19 20.44,19 "/>
<path class="st3" d="M25,24c1.1,0,2-0.9,2-2V10c0-1.1-0.9-2-2-2h-2c0.1,0.2,4.6,7.7,0,16"/>
</svg>
